<svg width="719" height="535" viewBox="0 0 719 535" fill="none" xmlns="http://www.w3.org/2000/svg">
  <g clip-path="url(#clip0_1_114)">
    <path
      d="M399.055 295.597C363.184 295.597 334.104 264.579 334.104 226.317C334.104 188.054 363.184 157.036 399.055 157.036C434.926 157.036 464.005 188.054 464.005 226.317C464.005 264.579 434.926 295.597 399.055 295.597Z"
      fill="#6C63FF" />
    <path
      d="M535.011 103.141C520.337 103.141 508.441 91.2449 508.441 76.5708C508.441 61.8967 520.337 50.0009 535.011 50.0009C549.685 50.0009 561.581 61.8967 561.581 76.5708C561.581 91.2449 549.685 103.141 535.011 103.141Z"
      fill="#FF6884" />
    <path d="M448.813 47.1142L446.604 75.3756L414.586 62.0023L432.647 33.2581L448.813 47.1142Z" fill="#A0616A" />
    <path
      d="M449.772 55.7243C436.591 55.7243 425.906 45.039 425.906 31.858C425.906 18.677 436.591 7.99163 449.772 7.99163C462.953 7.99163 473.638 18.677 473.638 31.858C473.638 45.039 462.953 55.7243 449.772 55.7243Z"
      fill="#A0616A" />
    <path d="M494.423 254.379L490.381 290.628L518.671 286.71L509.433 253.224L494.423 254.379Z" fill="#A0616A" />
    <path d="M384.151 259.575L380.11 295.824L408.399 291.906L399.162 258.42L384.151 259.575Z" fill="#A0616A" />
    <path
      d="M451.411 150.169C451.797 150.169 482.671 151.719 503.07 152.746C512.724 153.231 520.073 161.588 519.324 171.226L512.031 265.059L491.247 265.637L490.74 190.005L449.679 192.315L451.411 150.169Z"
      fill="#2F2E41" />
    <path
      d="M360.769 149.592C360.769 149.592 355.573 189.428 359.614 193.469C363.656 197.511 490.381 190.294 490.381 190.294C490.381 190.294 462.58 150.148 457.573 149.004C452.566 147.86 372.893 143.818 372.893 143.818L360.769 149.592Z"
      fill="#2F2E41" />
    <path
      d="M524.94 99.4369C529.766 92.6874 530.195 84.7262 525.899 81.6557C521.603 78.5851 514.21 81.5678 509.383 88.3203C507.418 90.9913 506.121 94.094 505.601 97.3688L485.514 126.225L496.945 134.139L517.599 105.945C520.531 104.393 523.048 102.161 524.94 99.4369Z"
      fill="#A0616A" />
    <path
      d="M449.57 191.109C456.929 194.941 464.872 194.25 467.31 189.566C469.748 184.882 465.758 177.98 458.395 174.147C455.475 172.576 452.222 171.727 448.906 171.671L417.519 155.828L411.285 168.256L442.096 184.753C444.044 187.438 446.607 189.617 449.57 191.109Z"
      fill="#A0616A" />
    <path
      d="M449.968 65.0117L420.523 52.8876L365.099 138.334C365.099 138.334 403.781 146.994 417.059 148.726C430.338 150.458 445.349 143.53 445.349 143.53L449.968 65.0117Z"
      fill="#E6E6E6" />
    <path
      d="M414.173 79.4452L424.853 46.1278L410.997 56.6403C410.997 56.6403 371.738 82.6205 371.738 93.59C371.738 104.559 359.614 138.045 359.614 138.045C359.614 138.045 346.047 149.303 350.665 159.695C355.284 170.087 344.603 168.644 343.449 176.149C342.294 183.655 359.903 193.758 359.903 193.758C359.903 193.758 364.233 151.324 378.089 151.324C391.945 151.324 414.173 79.4452 414.173 79.4452Z"
      fill="#3F3D56" />
    <path
      d="M447.899 64.1598L462.38 69.9191C462.38 69.9191 460.071 110.333 457.762 113.797C455.452 117.261 447.37 135.736 447.37 135.736V141.757C447.37 141.757 463.535 146.705 462.958 149.592C462.38 152.478 424.853 160.561 424.853 160.561C424.853 160.561 432.359 137.468 436.977 129.962C441.596 122.457 447.899 64.1598 447.899 64.1598Z"
      fill="#3F3D56" />
    <path
      d="M413.884 56.063C413.884 56.063 381.553 54.331 374.625 71.6511C367.697 88.9712 361.924 145.55 361.924 145.55L432.359 183.871L444.483 165.18L397.141 128.23L413.884 56.063Z"
      fill="#3F3D56" />
    <path
      d="M457.184 69.9191C457.184 69.9191 473.927 67.6097 476.814 87.2392C479.701 106.869 477.866 109.467 477.866 109.467L482.587 120.725L498.175 103.405L513.186 113.219C513.186 113.219 486.051 157.097 475.082 155.942C464.112 154.788 447.947 123.034 447.947 123.034L457.184 69.9191Z"
      fill="#3F3D56" />
    <path
      d="M373.564 155.965L382.13 277.183L404.358 276.317C404.358 276.317 409.265 161.716 409.265 159.984C409.265 158.252 406.956 148.437 392.522 147.86C378.089 147.282 373.564 155.965 373.564 155.965Z"
      fill="#2F2E41" />
    <path
      d="M405.801 279.493C405.801 279.493 394.254 276.029 392.522 278.338C390.79 280.647 380.976 281.802 380.976 281.802L378.089 310.092C378.089 310.092 386.172 315.865 387.326 317.02C388.481 318.174 419.08 319.329 419.657 312.401C420.235 305.473 411.575 296.813 411.575 296.813L405.801 279.493Z"
      fill="#2F2E41" />
    <path
      d="M490.67 271.41C490.67 271.41 487.206 268.523 486.051 276.606C484.897 284.689 480.855 297.968 486.629 299.7C492.402 301.432 550.136 302.009 550.136 296.813V291.617L544.94 287.576L534.545 285.919C534.545 285.919 514.341 267.369 512.031 267.369C509.722 267.369 502.217 274.874 502.217 274.874L490.67 271.41Z"
      fill="#2F2E41" />
    <path
      d="M426.297 44.8049C426.297 44.8049 437.844 30.9488 442.462 32.1034C447.081 33.2581 444.194 34.9901 444.194 34.9901L455.741 22.2887C455.741 22.2887 464.978 18.8247 473.638 29.7941C473.638 29.7941 478.835 20.5567 473.638 15.3606C468.442 10.1646 466.71 10.7419 465.556 7.85525C464.401 4.96856 456.318 2.65921 456.318 2.65921C456.318 2.65921 456.782 -1.49581 454.241 0.581697C451.7 2.6592 445.353 2.65921 445.353 2.65921C445.353 2.65921 445.317 0.349855 442.735 2.65921C440.153 4.96856 437.266 3.81388 437.266 3.81388C437.266 3.81388 437.266 7.80979 435.245 7.83252C433.225 7.85525 429.761 4.96856 429.183 7.27791C428.606 9.58726 424.565 10.7419 423.987 17.67C423.41 24.5981 426.297 44.8049 426.297 44.8049Z"
      fill="#2F2E41" />
    <path
      d="M553.831 61.8988H647.832C653.423 61.8988 657.956 66.4312 657.956 72.0221V72.0221C657.956 77.613 653.423 82.1453 647.832 82.1453H553.831C548.24 82.1453 543.708 77.613 543.708 72.0221C543.708 66.4312 548.24 61.8988 553.831 61.8988Z"
      fill="#3F3D56" />
    <path d="M553.711 17.67H646.025V118.902H553.711V17.67Z" fill="white" />
    <path d="M553.133 119.479H646.602V17.0927H553.133V119.479ZM645.447 118.325H554.288V18.2473H645.447V118.325Z"
      fill="#3F3D56" />
    <path
      d="M547.805 76.6016H651.93C659.384 76.6016 665.428 82.6447 665.428 90.0992V90.0993C665.428 97.5538 659.384 103.597 651.93 103.597H547.805C540.351 103.597 534.308 97.5538 534.308 90.0992C534.308 82.6447 540.351 76.6016 547.805 76.6016Z"
      fill="#3F3D56" />
    <path
      d="M526.595 99.0173C525.264 99.0173 524.184 95.4023 524.184 90.9429C524.184 86.4834 525.264 82.8684 526.595 82.8684C527.926 82.8684 529.005 86.4834 529.005 90.9429C529.005 95.4023 527.926 99.0173 526.595 99.0173Z"
      fill="#3F3D56" />
    <path
      d="M676.033 98.0532C674.435 98.0532 673.14 94.5461 673.14 90.2198C673.14 85.8935 674.435 82.3863 676.033 82.3863C677.63 82.3863 678.925 85.8935 678.925 90.2198C678.925 94.5461 677.63 98.0532 676.033 98.0532Z"
      fill="#3F3D56" />
    <path d="M658.679 89.1351H675.31V90.8223H658.679V89.1351Z" fill="#3F3D56" />
    <path d="M528.041 89.8582H541.539V92.2685H528.041V89.8582Z" fill="#3F3D56" />
    <path
      d="M543.872 195.115H643.691C651.583 195.115 658.003 188.695 658.003 180.803V109.305C658.003 101.413 651.583 94.9927 643.691 94.9927H543.872C535.98 94.9927 529.56 101.413 529.56 109.305V180.803C529.56 188.695 535.98 195.115 543.872 195.115Z"
      fill="#3F3D56" />
    <path
      d="M647.109 152.285C645.379 152.285 643.976 150.882 643.976 149.151C643.976 147.421 645.379 146.018 647.109 146.018C648.84 146.018 650.243 147.421 650.243 149.151C650.243 150.882 648.84 152.285 647.109 152.285Z"
      fill="#6C63FF" />
    <path
      d="M642.771 162.408C641.04 162.408 639.637 161.005 639.637 159.275C639.637 157.544 641.04 156.141 642.771 156.141C644.501 156.141 645.904 157.544 645.904 159.275C645.904 161.005 644.501 162.408 642.771 162.408Z"
      fill="#6C63FF" />
    <path
      d="M639.637 171.567C637.907 171.567 636.504 170.164 636.504 168.434C636.504 166.703 637.907 165.3 639.637 165.3C641.368 165.3 642.771 166.703 642.771 168.434C642.771 170.164 641.368 171.567 639.637 171.567Z"
      fill="#6C63FF" />
    <path
      d="M634.094 180.967C632.363 180.967 630.96 179.564 630.96 177.834C630.96 176.103 632.363 174.7 634.094 174.7C635.824 174.7 637.227 176.103 637.227 177.834C637.227 179.564 635.824 180.967 634.094 180.967Z"
      fill="#6C63FF" />
    <path
      d="M624.935 180.967C623.204 180.967 621.801 179.564 621.801 177.834C621.801 176.103 623.204 174.7 624.935 174.7C626.665 174.7 628.068 176.103 628.068 177.834C628.068 179.564 626.665 180.967 624.935 180.967Z"
      fill="#6C63FF" />
    <path
      d="M615.776 180.967C614.045 180.967 612.642 179.564 612.642 177.834C612.642 176.103 614.045 174.7 615.776 174.7C617.506 174.7 618.909 176.103 618.909 177.834C618.909 179.564 617.506 180.967 615.776 180.967Z"
      fill="#6C63FF" />
    <path
      d="M606.616 180.967C604.886 180.967 603.483 179.564 603.483 177.834C603.483 176.103 604.886 174.7 606.616 174.7C608.347 174.7 609.75 176.103 609.75 177.834C609.75 179.564 608.347 180.967 606.616 180.967Z"
      fill="#6C63FF" />
    <path
      d="M597.457 180.967C595.727 180.967 594.324 179.564 594.324 177.834C594.324 176.103 595.727 174.7 597.457 174.7C599.188 174.7 600.591 176.103 600.591 177.834C600.591 179.564 599.188 180.967 597.457 180.967Z"
      fill="#6C63FF" />
    <path
      d="M588.298 180.967C586.568 180.967 585.165 179.564 585.165 177.834C585.165 176.103 586.568 174.7 588.298 174.7C590.029 174.7 591.432 176.103 591.432 177.834C591.432 179.564 590.029 180.967 588.298 180.967Z"
      fill="#6C63FF" />
    <path
      d="M579.139 180.967C577.409 180.967 576.006 179.564 576.006 177.834C576.006 176.103 577.409 174.7 579.139 174.7C580.87 174.7 582.272 176.103 582.272 177.834C582.272 179.564 580.87 180.967 579.139 180.967Z"
      fill="#6C63FF" />
    <path
      d="M569.98 180.967C568.249 180.967 566.847 179.564 566.847 177.834C566.847 176.103 568.249 174.7 569.98 174.7C571.711 174.7 573.113 176.103 573.113 177.834C573.113 179.564 571.711 180.967 569.98 180.967Z"
      fill="#6C63FF" />
    <path
      d="M560.821 180.967C559.09 180.967 557.688 179.564 557.688 177.834C557.688 176.103 559.09 174.7 560.821 174.7C562.551 174.7 563.954 176.103 563.954 177.834C563.954 179.564 562.551 180.967 560.821 180.967Z"
      fill="#6C63FF" />
    <path
      d="M551.662 180.967C549.931 180.967 548.528 179.564 548.528 177.834C548.528 176.103 549.931 174.7 551.662 174.7C553.392 174.7 554.795 176.103 554.795 177.834C554.795 179.564 553.392 180.967 551.662 180.967Z"
      fill="#6C63FF" />
    <path
      d="M630.31 171.567C628.579 171.567 627.176 170.164 627.176 168.434C627.176 166.703 628.579 165.3 630.31 165.3C632.04 165.3 633.443 166.703 633.443 168.434C633.443 170.164 632.04 171.567 630.31 171.567Z"
      fill="#6C63FF" />
    <path
      d="M620.982 171.567C619.251 171.567 617.848 170.164 617.848 168.434C617.848 166.703 619.251 165.3 620.982 165.3C622.712 165.3 624.115 166.703 624.115 168.434C624.115 170.164 622.712 171.567 620.982 171.567Z"
      fill="#6C63FF" />
    <path
      d="M611.654 171.567C609.923 171.567 608.521 170.164 608.521 168.434C608.521 166.703 609.923 165.3 611.654 165.3C613.384 165.3 614.787 166.703 614.787 168.434C614.787 170.164 613.384 171.567 611.654 171.567Z"
      fill="#6C63FF" />
    <path
      d="M602.326 171.567C600.596 171.567 599.193 170.164 599.193 168.434C599.193 166.703 600.596 165.3 602.326 165.3C604.057 165.3 605.459 166.703 605.459 168.434C605.459 170.164 604.057 171.567 602.326 171.567Z"
      fill="#6C63FF" />
    <path
      d="M592.998 171.567C591.268 171.567 589.865 170.164 589.865 168.434C589.865 166.703 591.268 165.3 592.998 165.3C594.729 165.3 596.132 166.703 596.132 168.434C596.132 170.164 594.729 171.567 592.998 171.567Z"
      fill="#6C63FF" />
    <path
      d="M583.67 171.567C581.94 171.567 580.537 170.164 580.537 168.434C580.537 166.703 581.94 165.3 583.67 165.3C585.401 165.3 586.804 166.703 586.804 168.434C586.804 170.164 585.401 171.567 583.67 171.567Z"
      fill="#6C63FF" />
    <path
      d="M574.343 171.567C572.612 171.567 571.209 170.164 571.209 168.434C571.209 166.703 572.612 165.3 574.343 165.3C576.073 165.3 577.476 166.703 577.476 168.434C577.476 170.164 576.073 171.567 574.343 171.567Z"
      fill="#6C63FF" />
    <path
      d="M565.015 171.567C563.284 171.567 561.881 170.164 561.881 168.434C561.881 166.703 563.284 165.3 565.015 165.3C566.745 165.3 568.148 166.703 568.148 168.434C568.148 170.164 566.745 171.567 565.015 171.567Z"
      fill="#6C63FF" />
    <path
      d="M555.687 171.567C553.956 171.567 552.554 170.164 552.554 168.434C552.554 166.703 553.956 165.3 555.687 165.3C557.417 165.3 558.82 166.703 558.82 168.434C558.82 170.164 557.417 171.567 555.687 171.567Z"
      fill="#6C63FF" />
    <path
      d="M546.359 171.567C544.629 171.567 543.226 170.164 543.226 168.434C543.226 166.703 544.629 165.3 546.359 165.3C548.09 165.3 549.493 166.703 549.493 168.434C549.493 170.164 548.09 171.567 546.359 171.567Z"
      fill="#6C63FF" />
    <path
      d="M633.371 162.408C631.64 162.408 630.237 161.005 630.237 159.275C630.237 157.544 631.64 156.141 633.371 156.141C635.101 156.141 636.504 157.544 636.504 159.275C636.504 161.005 635.101 162.408 633.371 162.408Z"
      fill="#6C63FF" />
    <path
      d="M623.971 162.408C622.24 162.408 620.837 161.005 620.837 159.275C620.837 157.544 622.24 156.141 623.971 156.141C625.701 156.141 627.104 157.544 627.104 159.275C627.104 161.005 625.701 162.408 623.971 162.408Z"
      fill="#6C63FF" />
    <path
      d="M614.57 162.408C612.84 162.408 611.437 161.005 611.437 159.275C611.437 157.544 612.84 156.141 614.57 156.141C616.301 156.141 617.704 157.544 617.704 159.275C617.704 161.005 616.301 162.408 614.57 162.408Z"
      fill="#6C63FF" />
    <path
      d="M605.17 162.408C603.44 162.408 602.037 161.005 602.037 159.275C602.037 157.544 603.44 156.141 605.17 156.141C606.901 156.141 608.304 157.544 608.304 159.275C608.304 161.005 606.901 162.408 605.17 162.408Z"
      fill="#6C63FF" />
    <path
      d="M595.77 162.408C594.04 162.408 592.637 161.005 592.637 159.275C592.637 157.544 594.04 156.141 595.77 156.141C597.501 156.141 598.904 157.544 598.904 159.275C598.904 161.005 597.501 162.408 595.77 162.408Z"
      fill="#6C63FF" />
    <path
      d="M586.37 162.408C584.639 162.408 583.237 161.005 583.237 159.275C583.237 157.544 584.639 156.141 586.37 156.141C588.1 156.141 589.503 157.544 589.503 159.275C589.503 161.005 588.1 162.408 586.37 162.408Z"
      fill="#6C63FF" />
    <path
      d="M576.97 162.408C575.239 162.408 573.836 161.005 573.836 159.275C573.836 157.544 575.239 156.141 576.97 156.141C578.7 156.141 580.103 157.544 580.103 159.275C580.103 161.005 578.7 162.408 576.97 162.408Z"
      fill="#6C63FF" />
    <path
      d="M567.57 162.408C565.839 162.408 564.436 161.005 564.436 159.275C564.436 157.544 565.839 156.141 567.57 156.141C569.3 156.141 570.703 157.544 570.703 159.275C570.703 161.005 569.3 162.408 567.57 162.408Z"
      fill="#6C63FF" />
    <path
      d="M558.17 162.408C556.439 162.408 555.036 161.005 555.036 159.275C555.036 157.544 556.439 156.141 558.17 156.141C559.9 156.141 561.303 157.544 561.303 159.275C561.303 161.005 559.9 162.408 558.17 162.408Z"
      fill="#6C63FF" />
    <path
      d="M548.769 162.408C547.039 162.408 545.636 161.005 545.636 159.275C545.636 157.544 547.039 156.141 548.769 156.141C550.5 156.141 551.903 157.544 551.903 159.275C551.903 161.005 550.5 162.408 548.769 162.408Z"
      fill="#6C63FF" />
    <path
      d="M539.369 162.408C537.639 162.408 536.236 161.005 536.236 159.275C536.236 157.544 537.639 156.141 539.369 156.141C541.1 156.141 542.503 157.544 542.503 159.275C542.503 161.005 541.1 162.408 539.369 162.408Z"
      fill="#6C63FF" />
    <path
      d="M637.709 152.285C635.979 152.285 634.576 150.882 634.576 149.151C634.576 147.421 635.979 146.018 637.709 146.018C639.44 146.018 640.843 147.421 640.843 149.151C640.843 150.882 639.44 152.285 637.709 152.285Z"
      fill="#6C63FF" />
    <path
      d="M628.309 152.285C626.579 152.285 625.176 150.882 625.176 149.151C625.176 147.421 626.579 146.018 628.309 146.018C630.04 146.018 631.442 147.421 631.442 149.151C631.442 150.882 630.04 152.285 628.309 152.285Z"
      fill="#6C63FF" />
    <path
      d="M618.909 152.285C617.178 152.285 615.776 150.882 615.776 149.151C615.776 147.421 617.178 146.018 618.909 146.018C620.639 146.018 622.042 147.421 622.042 149.151C622.042 150.882 620.639 152.285 618.909 152.285Z"
      fill="#6C63FF" />
    <path
      d="M609.509 152.285C607.778 152.285 606.375 150.882 606.375 149.151C606.375 147.421 607.778 146.018 609.509 146.018C611.239 146.018 612.642 147.421 612.642 149.151C612.642 150.882 611.239 152.285 609.509 152.285Z"
      fill="#6C63FF" />
    <path
      d="M600.109 152.285C598.378 152.285 596.975 150.882 596.975 149.151C596.975 147.421 598.378 146.018 600.109 146.018C601.839 146.018 603.242 147.421 603.242 149.151C603.242 150.882 601.839 152.285 600.109 152.285Z"
      fill="#6C63FF" />
    <path
      d="M590.709 152.285C588.978 152.285 587.575 150.882 587.575 149.151C587.575 147.421 588.978 146.018 590.709 146.018C592.439 146.018 593.842 147.421 593.842 149.151C593.842 150.882 592.439 152.285 590.709 152.285Z"
      fill="#6C63FF" />
    <path
      d="M581.308 152.285C579.578 152.285 578.175 150.882 578.175 149.151C578.175 147.421 579.578 146.018 581.308 146.018C583.039 146.018 584.442 147.421 584.442 149.151C584.442 150.882 583.039 152.285 581.308 152.285Z"
      fill="#6C63FF" />
    <path
      d="M571.908 152.285C570.178 152.285 568.775 150.882 568.775 149.151C568.775 147.421 570.178 146.018 571.908 146.018C573.639 146.018 575.042 147.421 575.042 149.151C575.042 150.882 573.639 152.285 571.908 152.285Z"
      fill="#6C63FF" />
    <path
      d="M562.508 152.285C560.778 152.285 559.375 150.882 559.375 149.151C559.375 147.421 560.778 146.018 562.508 146.018C564.239 146.018 565.641 147.421 565.641 149.151C565.641 150.882 564.239 152.285 562.508 152.285Z"
      fill="#6C63FF" />
    <path
      d="M553.108 152.285C551.377 152.285 549.975 150.882 549.975 149.151C549.975 147.421 551.377 146.018 553.108 146.018C554.838 146.018 556.241 147.421 556.241 149.151C556.241 150.882 554.838 152.285 553.108 152.285Z"
      fill="#6C63FF" />
    <path
      d="M543.708 152.285C541.977 152.285 540.574 150.882 540.574 149.151C540.574 147.421 541.977 146.018 543.708 146.018C545.438 146.018 546.841 147.421 546.841 149.151C546.841 150.882 545.438 152.285 543.708 152.285Z"
      fill="#6C63FF" />
    <path
      d="M644.458 120.71C637.669 120.71 632.166 115.206 632.166 108.417C632.166 101.629 637.669 96.125 644.458 96.125C651.247 96.125 656.75 101.629 656.75 108.417C656.75 115.206 651.247 120.71 644.458 120.71Z"
      fill="#6C63FF" />
    <path
      d="M544.672 120.71C537.883 120.71 532.379 115.206 532.379 108.417C532.379 101.629 537.883 96.125 544.672 96.125C551.461 96.125 556.964 101.629 556.964 108.417C556.964 115.206 551.461 120.71 544.672 120.71Z"
      fill="#6C63FF" />
    <path
      d="M614.199 103.597H576.267C574.567 103.597 573.018 104.573 572.284 106.107L562.047 127.503C560.645 130.433 562.781 133.824 566.03 133.824H621.535C624.565 133.824 626.694 130.842 625.711 127.976L618.375 106.58C617.763 104.796 616.085 103.597 614.199 103.597Z"
      fill="#6C63FF" />
    <path d="M572.941 32.6808H628.606V33.8355H572.941V32.6808Z" fill="#3F3D56" />
    <path d="M572.941 43.0729H628.606V44.2275H572.941V43.0729Z" fill="#3F3D56" />
    <path d="M572.941 53.465H628.606V54.6196H572.941V53.465Z" fill="#3F3D56" />
  </g>
  <g clip-path="url(#clip1_1_114)">
    <path
      d="M19.7661 507.964C19.7661 522.79 99.8948 534.81 198.741 534.81C297.587 534.81 377.716 522.79 377.716 507.964C377.716 497.468 337.55 488.375 279.014 483.964C254.875 482.14 227.602 481.118 198.741 481.118C186.877 481.118 175.284 481.291 164.072 481.62C81.8184 484.045 19.7661 494.916 19.7661 507.964Z"
      fill="#3F3D56" />
    <path opacity="0.1"
      d="M221.834 513.449C183.891 513.449 153.131 509.701 153.131 505.077C153.131 500.454 183.891 496.706 221.834 496.706C259.778 496.706 290.538 500.454 290.538 505.077C290.538 509.701 259.778 513.449 221.834 513.449Z"
      fill="black" />
    <path
      d="M222.123 511.139C186.252 511.139 157.173 480.121 157.173 441.859C157.173 403.596 186.252 372.578 222.123 372.578C257.994 372.578 287.074 403.596 287.074 441.859C287.074 480.121 257.994 511.139 222.123 511.139Z"
      fill="#3F3D56" />
    <path d="M201.628 482.85H242.041V519.799H201.628V482.85Z" fill="#6C63FF" />
    <path d="M148.801 491.799L151.11 504.5L136.1 506.809L126.285 501.036L126.862 491.799H148.801Z" fill="#575A89" />
    <path
      d="M224.432 253.358C224.432 253.358 225.587 266.637 228.474 267.214C231.36 267.791 222.123 290.885 222.123 290.885H208.267L197.297 287.998L202.494 275.297C202.494 275.297 209.422 266.059 204.226 258.554C199.03 251.048 224.432 253.358 224.432 253.358Z"
      fill="#A0616A" />
    <path opacity="0.1"
      d="M224.432 253.358C224.432 253.358 225.587 266.637 228.474 267.214C231.36 267.791 222.123 290.885 222.123 290.885H208.267L197.297 287.998L202.494 275.297C202.494 275.297 209.422 266.059 204.226 258.554C199.03 251.048 224.432 253.358 224.432 253.358Z"
      fill="black" />
    <path
      d="M253.299 354.969C253.299 354.969 268.31 383.836 256.186 389.61C244.062 395.383 241.175 394.806 241.175 396.538C241.175 398.27 243.485 397.692 242.33 400.579C241.175 403.466 244.639 415.012 241.175 421.941C237.711 428.869 238.866 434.065 238.866 434.065C238.866 434.065 238.866 434.642 237.711 436.951C236.557 439.261 235.979 440.993 236.557 442.147C237.134 443.302 240.598 450.807 237.134 452.539C233.67 454.271 215.772 455.426 214.04 452.539C212.308 449.653 215.772 447.921 214.04 446.189C212.308 444.457 211.154 443.879 212.308 442.725C213.463 441.57 214.618 427.137 214.618 427.137C214.618 427.137 211.731 410.394 212.886 408.084C214.04 405.775 215.772 403.466 214.618 401.734C213.463 400.002 212.308 400.579 211.731 398.27C211.154 395.96 209.999 390.764 209.999 390.764L203.648 390.187L188.637 393.074C188.637 393.074 171.895 411.548 153.42 417.322C153.42 417.322 148.224 422.518 146.492 422.518C144.76 422.518 144.76 422.518 145.337 423.673C145.914 424.827 147.646 424.827 146.492 425.982C145.337 427.137 143.605 425.405 144.76 427.137C145.914 428.869 147.069 428.869 145.914 430.023C144.76 431.178 146.492 437.529 146.492 438.106C146.492 438.683 151.688 492.953 149.956 494.108C148.224 495.262 123.976 498.726 122.244 494.108C120.512 489.489 123.398 483.716 123.398 483.716C123.398 483.716 114.738 414.435 117.048 409.816C119.357 405.198 127.44 384.414 170.74 371.135C170.74 371.135 182.864 368.825 182.864 367.093C182.864 365.361 184.019 354.392 186.328 353.815C188.637 353.237 201.916 352.66 201.916 352.66L218.659 357.856L241.753 353.815L253.299 354.969Z"
      fill="#2F2E41" />
    <path
      d="M233.092 451.962L235.979 462.354C235.979 462.354 238.289 479.097 235.402 483.138C233.134 486.313 229.086 490.2 221.578 490.882C219.474 491.075 217.366 490.544 215.605 489.377C213.844 488.209 212.533 486.476 211.891 484.463C211.805 484.222 211.751 483.971 211.731 483.716C211.731 482.561 213.463 468.705 213.463 468.705L216.35 454.271L216.927 450.23L233.092 451.962Z"
      fill="#2F2E41" />
    <path
      d="M148.801 501.613C148.801 501.613 151.688 498.726 152.265 501.613C152.842 504.5 155.152 516.624 151.11 517.201C147.069 517.779 108.387 523.552 104.346 521.243C100.305 518.933 92.7993 515.469 97.418 513.737C102.037 512.005 115.316 506.809 115.316 506.809C115.316 506.809 122.821 496.994 123.976 496.417C125.13 495.84 131.481 496.994 134.368 499.304C137.254 501.613 148.801 501.613 148.801 501.613Z"
      fill="#2F2E41" />
    <path
      d="M210.576 265.482C200.692 265.482 192.679 257.469 192.679 247.584C192.679 237.7 200.692 229.687 210.576 229.687C220.461 229.687 228.474 237.7 228.474 247.584C228.474 257.469 220.461 265.482 210.576 265.482Z"
      fill="#A0616A" />
    <path
      d="M212.308 287.998L219.236 280.493L226.916 265.482C226.916 265.482 232.515 263.75 233.67 266.637C234.824 269.523 255.609 278.761 255.609 278.761C255.609 278.761 250.413 327.257 252.722 331.876C255.031 336.494 259.073 354.969 255.609 356.701C252.145 358.433 235.979 356.701 230.783 359.011C225.587 361.32 210.576 361.32 206.535 358.433C202.494 355.547 201.339 353.237 197.298 354.969C193.857 356.444 185.814 306.034 183.498 291.011C183.303 289.749 183.465 288.458 183.966 287.284C184.467 286.11 185.286 285.099 186.332 284.366C191.512 280.733 200.842 274.471 202.494 275.297C204.803 276.451 212.308 287.998 212.308 287.998Z"
      fill="#575A89" />
    <path
      d="M187.483 285.689C186.127 286.028 184.907 286.773 183.988 287.826C183.068 288.878 182.493 290.186 182.338 291.575L177.668 333.608C177.668 333.608 189.215 358.433 194.988 341.691C200.762 324.948 187.483 285.689 187.483 285.689Z"
      fill="#575A89" />
    <path
      d="M188.637 337.649L175.936 334.185C175.936 334.185 173.627 350.351 171.317 350.351C169.008 350.351 179.4 359.588 184.596 358.433C189.792 357.279 197.298 353.237 197.875 350.351C198.452 347.464 192.679 335.34 192.679 335.34L188.637 337.649Z"
      fill="#575A89" />
    <path
      d="M224.087 255.305C222.87 252.622 223.081 249.492 222.075 246.722C221.536 245.239 220.662 243.901 219.521 242.812C218.379 241.723 217.001 240.912 215.495 240.444C213.988 239.975 212.393 239.862 210.836 240.111C209.278 240.361 207.799 240.968 206.514 241.884C205.22 242.806 203.922 244.103 202.343 243.927C200.641 243.737 199.124 241.839 197.56 242.535C195.826 243.306 196.294 246.413 194.538 247.13C193.614 247.508 192.521 246.926 191.988 246.082C191.522 245.195 191.267 244.211 191.245 243.209C191.003 240.747 190.784 238.141 191.852 235.909C192.301 235.152 192.693 234.363 193.023 233.547C193.21 232.786 193.285 232.001 193.246 231.218C193.255 228.324 193.467 225.305 194.923 222.804C196.54 220.029 199.527 218.254 202.644 217.48C205.761 216.705 209.027 216.824 212.227 217.095C217.517 217.543 223.034 218.503 227.202 221.791C227.769 222.205 228.256 222.718 228.642 223.304C229.007 224 229.266 224.748 229.408 225.522C230.31 229.191 231.661 232.736 233.431 236.074C234.283 237.489 234.979 238.992 235.507 240.557C235.949 242.147 235.919 243.96 234.994 245.326C234.241 246.439 233.036 247.032 232.09 247.942C231.153 248.843 230.714 250.577 229.675 251.26C228.769 251.856 227.683 251.435 226.758 252.067C225.571 252.877 225.485 254.655 224.087 255.305Z"
      fill="#2F2E41" />
    <path
      d="M209.422 296.658L207.69 293.194C207.69 293.194 182.287 300.7 177.091 307.628C177.091 307.628 164.389 299.545 157.461 300.7L150.533 301.854L171.895 320.906L199.03 318.597L209.422 296.658Z"
      fill="#F2F2F2" />
    <path
      d="M210.576 293.194L234.247 326.102L200.184 342.845C200.184 342.845 197 344.577 194.551 342.845L171.895 332.453L150.533 301.854L171.895 312.824C171.895 312.824 174.204 308.205 178.823 310.514L210.576 293.194Z"
      fill="#6C63FF" />
    <path
      d="M174.204 351.505L169.585 339.381C169.585 339.381 159.193 326.102 164.967 319.752C170.74 313.401 177.091 338.226 177.091 338.226L174.204 351.505Z"
      fill="#A0616A" />
    <path
      d="M227.494 349.57L217.416 341.4C217.416 341.4 201.764 335.127 203.572 326.737C205.38 318.347 223.329 336.636 223.329 336.636L227.494 349.57Z"
      fill="#A0616A" />
    <path opacity="0.1"
      d="M252.433 291.173H253.011C253.011 291.173 261.959 280.493 263.691 294.926C265.423 309.36 271.197 357.279 256.186 359.011C241.175 360.743 230.494 351.794 230.494 351.794C230.494 351.794 219.525 335.051 223.566 335.051C225.522 335.051 230.84 334.173 235.69 334.474C240.865 334.795 245.515 336.252 245.217 334.762C244.639 331.876 236.268 295.215 252.433 291.173Z"
      fill="black" />
    <path
      d="M253.299 279.915L255.609 278.761C255.609 278.761 264.846 280.493 266.578 294.926C268.31 309.36 274.083 357.279 259.073 359.011C244.062 360.743 223.855 356.701 223.855 356.701C223.855 356.701 219.814 334.762 223.855 334.762C227.896 334.762 248.681 337.649 248.103 334.762C247.526 331.876 237.134 283.957 253.299 279.915Z"
      fill="#575A89" />
    <path d="M182.575 344.866L176.209 335.109L172.183 351.217L182.575 355.836V344.866Z" fill="#575A89" />
    <path
      d="M313.358 205.727C304.749 205.727 297.77 198.748 297.77 190.139C297.77 181.53 304.749 174.551 313.358 174.551C321.967 174.551 328.946 181.53 328.946 190.139C328.946 198.748 321.967 205.727 313.358 205.727Z"
      fill="#F2F2F2" />
    <path d="M294.883 306.184H331.833V343.134H294.883V306.184Z" fill="#F2F2F2" />
    <path d="M124.934 205.662L115.582 221.86L106.23 238.059H124.934H143.638L134.287 221.86L124.934 205.662Z"
      fill="#F2F2F2" />
  </g>
  <defs>
    <clipPath id="clip0_1_114">
      <rect width="422.421" height="317.893" fill="white" transform="matrix(-1 0 0 1 718.421 0)" />
    </clipPath>
    <clipPath id="clip1_1_114">
      <rect width="377.716" height="393.81" fill="white" transform="matrix(-1 0 0 1 377.716 141)" />
    </clipPath>
  </defs>
</svg>