<svg width="3549" height="3360" viewBox="0 0 3549 3360" fill="none" xmlns="http://www.w3.org/2000/svg">
  <path d="M3345.46 2451V658C2731.76 658 2089.23 1042 2089.23 1445.5V3070C2089.23 2650 2926.72 2482.33 3345.46 2451Z"
    fill="white" />
  <path d="M3212 2397.39V658C2663.87 658 2235.61 1149.35 2090 1395.03V2976.72C2090 2583.63 2838 2426.71 3212 2397.39Z"
    fill="#161616" fill-opacity="0.92" />
  <path d="M3041.77 2227V434C2493.37 434 1919.23 818 1919.23 1221.5V2846C1919.23 2426 2667.59 2258.33 3041.77 2227Z"
    fill="white" />
  <path
    d="M2845 2172.66V434C2392.62 434 2039.18 925.147 1919 1170.72V2751.75C1919 2358.83 2536.33 2201.97 2845 2172.66Z"
    fill="#161616" fill-opacity="0.92" />
  <path d="M2704.56 2002V209C2252.02 209 1778.23 593 1778.23 996.5V2621C1778.23 2201 2395.78 2033.33 2704.56 2002Z"
    fill="white" />
  <path d="M203 2451V658C816.707 658 1459.23 1042 1459.23 1445.5V3070C1459.23 2650 621.744 2482.33 203 2451Z"
    fill="white" />
  <path d="M336 2397.39V658C884.619 658 1313.26 1149.35 1459 1395.03V2976.72C1459 2583.63 710.333 2426.71 336 2397.39Z"
    fill="#161616" fill-opacity="0.92" />
  <path d="M506.697 2227V434C1055.09 434 1629.23 818 1629.23 1221.5V2846C1629.23 2426 880.875 2258.33 506.697 2227Z"
    fill="white" />
  <path d="M703 2172.66V434C1155.87 434 1509.69 925.147 1630 1170.72V2751.75C1630 2358.83 1012 2201.97 703 2172.66Z"
    fill="#161616" fill-opacity="0.92" />
  <path d="M843.902 2002V209C1296.44 209 1770.23 593 1770.23 996.5V2621C1770.23 2201 1152.68 2033.33 843.902 2002Z"
    fill="white" />
</svg>